<svg id="Layer_1" data-name="Layer 1" xmlns="http://www.w3.org/2000/svg" viewBox="0 0 1005.41 718.29"><defs><style>.cls-1{fill:#fff;}.cls-1,.cls-2{stroke:#000;stroke-miterlimit:10;}.cls-2{fill:none;}.cls-3{fill:gray;}.cls-4{font-size:35.14px;font-family:MyriadPro-Regular, Myriad Pro;}.cls-5{letter-spacing:-0.01em;}.cls-6{letter-spacing:0.01em;}.cls-7{letter-spacing:-0.01em;}.cls-8{letter-spacing:-0.01em;}.cls-9{letter-spacing:-0.01em;}.cls-10{letter-spacing:0em;}</style></defs><line class="cls-1" x1="246.08" y1="678.79" x2="958.58" y2="672.79"/><line class="cls-2" x1="74.08" y1="691.79" x2="191.08" y2="679.79"/><line class="cls-2" x1="290.9" y1="695.67" x2="290.9" y2="684.21"/><line class="cls-2" x1="415.86" y1="695.67" x2="415.86" y2="684.21"/><line class="cls-2" x1="540.82" y1="695.67" x2="540.82" y2="684.21"/><line class="cls-2" x1="665.77" y1="695.67" x2="665.77" y2="684.21"/><line class="cls-2" x1="790.73" y1="695.67" x2="790.73" y2="684.21"/><line class="cls-2" x1="915.69" y1="695.67" x2="915.69" y2="684.21"/><line class="cls-2" x1="135.08" y1="717.79" x2="0.08" y2="696.79"/><line class="cls-2" x1="79.12" y1="676.54" x2="129.12" y2="699.54"/><line class="cls-2" x1="241.94" y1="364.67" x2="260.69" y2="364.67"/><line class="cls-2" x1="241.94" y1="307.33" x2="260.69" y2="307.33"/><line class="cls-2" x1="241.94" y1="249.99" x2="260.69" y2="249.99"/><line class="cls-2" x1="241.94" y1="192.65" x2="260.69" y2="192.65"/><line class="cls-2" x1="241.94" y1="135.32" x2="260.69" y2="135.32"/><line class="cls-2" x1="241.94" y1="77.98" x2="260.69" y2="77.98"/><line class="cls-2" x1="241.94" y1="20.64" x2="260.69" y2="20.64"/><rect class="cls-3" x="241.94" width="38.74" height="41.28"/><rect class="cls-3" x="241.94" y="57.34" width="293.65" height="41.28"/><rect class="cls-3" x="241.94" y="114.68" width="678.52" height="41.28"/><rect class="cls-3" x="241.94" y="172.01" width="51.23" height="41.28"/><rect class="cls-3" x="241.94" y="229.35" width="192.43" height="41.28"/><rect class="cls-3" x="241.94" y="286.69" width="109.96" height="41.28"/><rect class="cls-3" x="241.94" y="344.03" width="134.95" height="41.28"/><rect class="cls-3" x="241.94" y="401.36" width="10" height="41.28"/><text class="cls-4" transform="translate(86.84 435.18)">uni<tspan class="cls-5" x="47.09" y="0">v</tspan><tspan x="63.65" y="0">ersi</tspan><tspan class="cls-6" x="114.89" y="0">t</tspan><tspan x="126.83" y="0">y</tspan></text><text class="cls-4" transform="translate(57.81 377.85)">public adm.</text><text class="cls-4" transform="translate(40.45 320.51)"><tspan xml:space="preserve"> civil de</tspan><tspan class="cls-7" x="109.72" y="0">f</tspan><tspan x="119.52" y="0">en</tspan><tspan class="cls-8" x="156.64" y="0">c</tspan><tspan x="172.17" y="0">e</tspan></text><text class="cls-4" transform="translate(134.5 263.17)">citi<tspan class="cls-9" x="43.82" y="0">z</tspan><tspan x="58.62" y="0">en</tspan></text><text class="cls-4" transform="translate(93.55 205.83)"><tspan class="cls-8">c</tspan><tspan class="cls-10" x="15.53" y="0">ompa</tspan><tspan class="cls-7" x="101.07" y="0">n</tspan><tspan x="120.12" y="0">y</tspan></text><text class="cls-4" transform="translate(112.43 148.5)">hospital</text><text class="cls-4" transform="translate(103.53 91.16)">no p<tspan class="cls-5" x="66.25" y="0">r</tspan><tspan x="77.39" y="0">ofit</tspan></text><text class="cls-4" transform="translate(134.18 33.82)">school</text><text class="cls-4" transform="translate(303.58 34.52)">31</text><text class="cls-4" transform="translate(563.02 89.15)">235</text><text class="cls-4" transform="translate(951.32 147.96)">543</text><text class="cls-4" transform="translate(322.35 205.96)">41</text><text class="cls-4" transform="translate(453.1 264.76)">154</text><text class="cls-4" transform="translate(378.14 320.76)">88</text><text class="cls-4" transform="translate(399.11 376.76)">108</text><text class="cls-4" transform="translate(285.17 434.76)">8</text></svg>