<svg id="Layer_1" data-name="Layer 1" xmlns="http://www.w3.org/2000/svg" viewBox="0 0 1002.33 542.79"><defs><style>.cls-1,.cls-2{fill:none;}.cls-2{stroke:#000;stroke-miterlimit:10;}.cls-3{fill:gray;}.cls-4{font-size:35.14px;font-family:Lora-Regular, Lora;}.cls-5{letter-spacing:0em;}.cls-6{letter-spacing:0em;}.cls-7{letter-spacing:0em;}.cls-8{letter-spacing:0em;}.cls-9{letter-spacing:0em;}.cls-10{letter-spacing:-0.01em;}.cls-11{letter-spacing:-0.01em;}.cls-12{letter-spacing:0.03em;}.cls-13{letter-spacing:-0.01em;}</style></defs><line class="cls-1" x1="255" y1="507.79" x2="967.5" y2="501.79"/><line class="cls-1" x1="74" y1="516.79" x2="191" y2="504.79"/><line class="cls-1" x1="290.82" y1="520.67" x2="290.82" y2="509.21"/><line class="cls-1" x1="415.78" y1="520.67" x2="415.78" y2="509.21"/><line class="cls-1" x1="540.74" y1="520.67" x2="540.74" y2="509.21"/><line class="cls-1" x1="665.7" y1="520.67" x2="665.7" y2="509.21"/><line class="cls-1" x1="790.65" y1="520.67" x2="790.65" y2="509.21"/><line class="cls-1" x1="915.61" y1="520.67" x2="915.61" y2="509.21"/><line class="cls-1" x1="135" y1="542.79" y2="521.79"/><line class="cls-1" x1="79.04" y1="501.54" x2="129.04" y2="524.54"/><line class="cls-2" x1="238.87" y1="364.67" x2="257.61" y2="364.67"/><line class="cls-2" x1="238.87" y1="307.33" x2="257.61" y2="307.33"/><line class="cls-2" x1="238.87" y1="249.99" x2="257.61" y2="249.99"/><line class="cls-2" x1="238.87" y1="192.65" x2="257.61" y2="192.65"/><line class="cls-2" x1="238.87" y1="135.32" x2="257.61" y2="135.32"/><line class="cls-2" x1="238.87" y1="77.98" x2="257.61" y2="77.98"/><line class="cls-2" x1="238.87" y1="20.64" x2="257.61" y2="20.64"/><rect class="cls-3" x="238.87" width="38.74" height="41.28"/><rect class="cls-3" x="238.87" y="57.34" width="293.65" height="41.28"/><rect class="cls-3" x="238.87" y="114.68" width="678.52" height="41.28"/><rect class="cls-3" x="238.87" y="172.01" width="51.23" height="41.28"/><rect class="cls-3" x="238.87" y="229.35" width="192.43" height="41.28"/><rect class="cls-3" x="238.87" y="286.69" width="109.96" height="41.28"/><rect class="cls-3" x="238.87" y="344.03" width="134.95" height="41.28"/><rect class="cls-3" x="238.87" y="401.36" width="10" height="41.28"/><text class="cls-4" transform="translate(64.88 435.18)">uni<tspan class="cls-5" x="52.18" y="0">v</tspan><tspan x="69.76" y="0">ers</tspan><tspan class="cls-6" x="120.29" y="0">i</tspan><tspan class="cls-7" x="130.02" y="0">t</tspan><tspan x="143.72" y="0">y</tspan></text><text class="cls-4" transform="translate(38.11 377.85)">public adm.</text><text class="cls-4" transform="translate(13.18 320.51)"><tspan xml:space="preserve"> civil de</tspan><tspan class="cls-8" x="124.31" y="0">f</tspan><tspan x="136.01" y="0">en</tspan><tspan class="cls-5" x="176.39" y="0">c</tspan><tspan x="194.92" y="0">e</tspan></text><text class="cls-4" transform="translate(117.07 263.17)">c<tspan class="cls-6" x="18.7" y="0">i</tspan><tspan class="cls-9" x="28.43" y="0">ti</tspan><tspan class="cls-8" x="51.91" y="0">z</tspan><tspan class="cls-9" x="69.71" y="0">en</tspan></text><text class="cls-4" transform="translate(77.89 205.83)"><tspan class="cls-5">c</tspan><tspan x="18.53" y="0">ompa</tspan><tspan class="cls-10" x="109.64" y="0">n</tspan><tspan x="130.71" y="0">y</tspan></text><text class="cls-4" transform="translate(97.25 148.5)">hosp<tspan class="cls-6" x="78.87" y="0">i</tspan><tspan class="cls-9" x="88.6" y="0">tal</tspan></text><text class="cls-4" transform="translate(83.36 91.16)">no p<tspan class="cls-11" x="72.13" y="0">r</tspan><tspan class="cls-8" x="87.09" y="0">o</tspan><tspan class="cls-12" x="107.48" y="0">f</tspan><tspan class="cls-6" x="120.45" y="0">i</tspan><tspan class="cls-9" x="130.18" y="0">t</tspan></text><text class="cls-4" transform="translate(120.45 33.82)">school</text><text class="cls-4" transform="translate(304.19 34.52)">31</text><text class="cls-4" transform="translate(556.97 89.15)"><tspan class="cls-13">2</tspan><tspan x="18.36" y="0">35</tspan></text><text class="cls-4" transform="translate(944.58 147.96)">543</text><text class="cls-4" transform="translate(323.5 205.96)">41</text><text class="cls-4" transform="translate(453.16 264.76)">154</text><text class="cls-4" transform="translate(371.62 320.76)">88</text><text class="cls-4" transform="translate(395.76 376.76)">108</text><text class="cls-4" transform="translate(280.37 434.76)">8</text></svg>